<?xml version="1.0" encoding="utf-8"?>
<!-- Generator: Adobe Illustrator 22.1.0, SVG Export Plug-In . SVG Version: 6.00 Build 0)  -->
<svg version="1.1" id="Layer_1" xmlns="http://www.w3.org/2000/svg" xmlns:xlink="http://www.w3.org/1999/xlink" x="0px" y="0px"
	 viewBox="0 0 264.7 116.1" style="enable-background:new 0 0 264.7 116.1;" xml:space="preserve">
<style type="text/css">
	.st0{fill:#006A3C;}
	.st1{fill:#FFFFFF;}
</style>
<g>
	<g>
		<g>
			<polygon class="st0" points="67.2,116.1 66,116.1 66,68.2 67.2,68.2 67.2,116.1 			"/>
		</g>
	</g>
	<g>
		<path class="st0" d="M95,77.6V98h-3.7V77.6H95z"/>
		<path class="st0" d="M99.6,87.7c0-1.7,0-3.1-0.1-4.4h3.3l0.2,2.2h0.1c0.6-1.2,2.2-2.5,4.7-2.5c2.6,0,5.2,1.7,5.2,6.3V98h-3.7v-8.3
			c0-2.1-0.8-3.7-2.8-3.7c-1.5,0-2.5,1.1-2.9,2.2c-0.1,0.3-0.2,0.8-0.2,1.2V98h-3.8V87.7z"/>
		<path class="st0" d="M119.1,83.3l2.4,7.5c0.4,1.3,0.7,2.5,1,3.7h0.1c0.3-1.2,0.6-2.4,1-3.7l2.3-7.5h3.9L124.2,98h-3.7l-5.5-14.8
			H119.1z"/>
		<path class="st0" d="M134.7,91.7c0.1,2.7,2.2,3.8,4.5,3.8c1.7,0,3-0.2,4.1-0.7l0.5,2.6c-1.3,0.5-3,0.9-5.2,0.9
			c-4.8,0-7.6-3-7.6-7.5c0-4.1,2.5-7.9,7.2-7.9c4.8,0,6.4,3.9,6.4,7.2c0,0.7-0.1,1.2-0.1,1.6H134.7z M141.1,89.1
			c0-1.4-0.6-3.6-3.1-3.6c-2.3,0-3.3,2.1-3.4,3.6H141.1z"/>
		<path class="st0" d="M147.8,94.6c0.8,0.5,2.5,1.1,3.8,1.1c1.6,0,2.4-0.7,2.4-1.6c0-1-0.6-1.5-2.4-2.2c-2.9-1-4.1-2.6-4.1-4.3
			c0-2.6,2.2-4.6,5.6-4.6c1.6,0,3.1,0.4,3.9,0.9l-0.7,2.6c-0.6-0.4-1.8-0.8-3.1-0.8c-1.3,0-2.1,0.6-2.1,1.5c0,0.9,0.7,1.4,2.6,2.1
			c2.7,1,3.9,2.3,3.9,4.5c0,2.7-2.1,4.6-6,4.6c-1.8,0-3.4-0.5-4.5-1.1L147.8,94.6z"/>
		<path class="st0" d="M165.2,79.5v3.8h3.5v2.8h-3.5v6.5c0,1.8,0.5,2.7,1.9,2.7c0.7,0,1-0.1,1.5-0.2l0.1,2.8
			c-0.5,0.2-1.5,0.4-2.7,0.4c-1.4,0-2.5-0.5-3.2-1.2c-0.8-0.8-1.2-2.2-1.2-4.1v-6.9h-2.1v-2.8h2.1v-2.7L165.2,79.5z"/>
		<path class="st0" d="M171.8,87.7c0-1.7,0-3.1-0.1-4.4h3.2l0.2,2.2h0.1c0.7-1.2,2.1-2.5,4.5-2.5c1.9,0,3.5,1.1,4.1,2.7h0.1
			c0.5-0.8,1.1-1.4,1.8-1.8c0.8-0.6,1.8-0.9,3-0.9c2.5,0,4.9,1.7,4.9,6.4V98H190v-8.2c0-2.5-0.8-3.9-2.6-3.9c-1.3,0-2.2,0.9-2.6,2
			c-0.1,0.4-0.2,0.8-0.2,1.2V98h-3.6v-8.5c0-2.1-0.8-3.5-2.5-3.5c-1.4,0-2.3,1.1-2.7,2.1c-0.2,0.4-0.2,0.8-0.2,1.2V98h-3.6V87.7z"/>
		<path class="st0" d="M200.5,91.7c0.1,2.7,2.2,3.8,4.5,3.8c1.7,0,3-0.2,4.1-0.7l0.5,2.6c-1.3,0.5-3,0.9-5.2,0.9
			c-4.8,0-7.6-3-7.6-7.5c0-4.1,2.5-7.9,7.2-7.9c4.8,0,6.4,3.9,6.4,7.2c0,0.7-0.1,1.2-0.1,1.6H200.5z M207,89.1
			c0-1.4-0.6-3.6-3.1-3.6c-2.3,0-3.3,2.1-3.4,3.6H207z"/>
		<path class="st0" d="M213.8,87.7c0-1.7,0-3.1-0.1-4.4h3.3l0.2,2.2h0.1c0.6-1.2,2.2-2.5,4.7-2.5c2.6,0,5.2,1.7,5.2,6.3V98h-3.7
			v-8.3c0-2.1-0.8-3.7-2.8-3.7c-1.5,0-2.5,1.1-2.9,2.2c-0.1,0.3-0.2,0.8-0.2,1.2V98h-3.8V87.7z"/>
		<path class="st0" d="M235.5,79.5v3.8h3.5v2.8h-3.5v6.5c0,1.8,0.5,2.7,1.9,2.7c0.7,0,1-0.1,1.5-0.2L239,98
			c-0.5,0.2-1.5,0.4-2.7,0.4c-1.4,0-2.5-0.5-3.2-1.2c-0.8-0.8-1.2-2.2-1.2-4.1v-6.9h-2.1v-2.8h2.1v-2.7L235.5,79.5z"/>
		<path class="st0" d="M242,94.6c0.8,0.5,2.5,1.1,3.8,1.1c1.6,0,2.4-0.7,2.4-1.6c0-1-0.6-1.5-2.4-2.2c-2.9-1-4.1-2.6-4.1-4.3
			c0-2.6,2.2-4.6,5.6-4.6c1.6,0,3.1,0.4,3.9,0.9l-0.7,2.6c-0.6-0.4-1.8-0.8-3.1-0.8c-1.3,0-2.1,0.6-2.1,1.5c0,0.9,0.7,1.4,2.6,2.1
			c2.7,1,3.9,2.3,3.9,4.5c0,2.7-2.1,4.6-6,4.6c-1.8,0-3.4-0.5-4.5-1.1L242,94.6z"/>
	</g>
	<g>
		<g>
			<g>
				<path class="st0" d="M112.9,12.4v1.7h-1.1c-4,0-5.1,1.2-5.1,5.5v21.1c0,4.3,1.1,5.5,5.1,5.5h1.1v1.7H93.4v-1.7h1.1
					c4,0,5.1-1.2,5.1-5.5V17.8h-0.1L85.3,47.8h-1.6L69.5,18.3h-0.1v22.4c0,4.3,1.1,5.5,5.1,5.5h0.7v1.7H61v-1.7h0.7
					c3.9,0,5-1.2,5-5.5V19.5c0-4.3-1.1-5.5-5-5.5h-0.8v-1.7h13.7l12.3,25.8l12.2-25.8H112.9L112.9,12.4z"/>
			</g>
			<g>
				<path class="st0" d="M127.8,34.3c-4.6,1.6-4.3,1.4-5.8,2.4c-0.7,0.5-1.3,1.1-1.7,1.7c-0.3,0.6-0.5,1.2-0.5,1.9
					c0,2.2,1.5,4,3.4,4c1.3,0,3.6-1.2,5-2.5v-7.6L127.8,34.3L127.8,34.3z M139.1,44.2c-0.6,0.9-1.6,2.2-2.7,3
					c-1.3,1.1-2.8,1.6-4.3,1.6c-2.4,0-4-1.6-4-3.8v-0.6c-1.4,1.3-3.5,2.7-5.4,3.7c-1.1,0.5-2,0.7-3,0.7c-3.6,0-6-2.6-6-6.7
					c0-1.7,0.7-3.5,1.9-4.6c1.5-1.5,3.5-2.5,7.3-3.8l4.7-1.6l0.4-0.2v-1.1v-2.2c0-2.8-1-3.8-3.7-3.8c-2.3,0-3.7,0.9-3.7,2.6
					c0,0.1,0,0.3,0.1,0.7v0.3c0,1.8-1.1,2.9-2.7,2.9c-1.6,0-2.7-1.1-2.7-2.7c0-3.5,4-5.9,9.6-5.9c3.3,0,5.9,0.7,7.6,2
					c1.3,1.1,1.8,2.3,1.9,4.5v2.4v10.1c0,1.8,0.1,2,0.2,2.4c0.1,0.2,0.2,0.4,0.4,0.6c0.2,0.2,0.4,0.2,0.6,0.2c0.7,0,1.7-0.7,2.6-1.8
					L139.1,44.2L139.1,44.2z"/>
			</g>
			<g>
				<path class="st0" d="M149.4,26.3c2.7-2.4,5.6-3.6,8.4-3.6c3.1,0,5.8,1.6,6.7,4.1c0.5,1.4,0.7,3.1,0.7,6.6v9c0,3,0.6,3.8,2.9,3.8
					h0.5v1.7h-13v-1.7h0.3c2.4,0,3-0.8,3-3.8v-8.5c0-3.7-0.2-4.6-0.8-5.6c-0.6-0.9-1.7-1.4-2.8-1.4c-1.9,0-4,0.8-5.8,2.3v13.2
					c0,3,0.6,3.8,2.9,3.8h0.8v1.7h-13.4v-1.7h0.3c2.3,0,2.9-0.8,2.9-3.8V31.6c0-2.3-0.1-3.3-0.4-4.1c-0.4-0.8-1.1-1.2-1.9-1.2
					c-0.3,0-0.5,0-0.9,0.1v-1.9l7.5-1.8h2.2V26.3L149.4,26.3z"/>
			</g>
			<g>
				<path class="st0" d="M193.5,40.1l0.1,2.2c0.1,1.7,0.6,2.5,1.8,2.5c0.3,0,1-0.2,1.6-0.3v1.8l-7.7,2.5h-2.1v-3.7
					c-2.7,2.4-5.7,3.7-8.4,3.7c-3.4,0-6.2-2.2-6.9-5.2c-0.4-1.5-0.4-2.2-0.4-6v-8.5c0-2.7-0.6-3.7-2.5-3.7v-1.7h8.9v14.9
					c0,3.4,0.3,4.3,1.3,5.2c0.6,0.6,1.5,0.9,2.5,0.9c1.2,0,2.1-0.3,3.6-1.1c1-0.5,1.3-0.7,1.9-1.2V29.1c0-2.9-0.6-3.7-3-3.7h-1.1
					v-1.7h10.4V40.1L193.5,40.1z"/>
			</g>
			<g>
				<path class="st0" d="M206.9,42.4c0,2.9,0.6,3.8,2.8,3.8h0.2v1.7h-12.4v-1.7h0.2c2.4,0,2.9-0.8,2.9-3.8V20.5
					c0-2.7-0.1-3.7-0.3-4.4c-0.3-0.8-1.1-1.3-2-1.3h-0.5c-0.1,0-0.2,0-0.3,0.1l-0.3-1.7l7.6-1.3h2.2V42.4L206.9,42.4z"/>
			</g>
			<g>
				<path class="st0" d="M218,19.3c-2.1,0-3.8-1.7-3.8-3.8c0-2.1,1.7-3.8,3.8-3.8c2.1,0,3.8,1.7,3.8,3.8
					C221.8,17.6,220.1,19.3,218,19.3L218,19.3z M210.8,47.8v-1.7h0.8c2.3,0,2.9-0.8,2.9-3.8v-11c0-2.3-0.1-3.3-0.4-4.1
					c-0.4-0.8-1.1-1.3-1.9-1.3c-0.4,0-0.7,0.1-1.1,0.2l-0.4-1.7l8.1-1.8h2.2v19.7c0,3,0.6,3.8,2.9,3.8h0.5v1.7H210.8L210.8,47.8z"/>
			</g>
			<g>
				<path class="st0" d="M225.8,47.8v-1.7h1.1c2.3,0,2.9-0.8,2.9-3.8V26.7h-4v-3h4v-0.8c0-6.5,5-11.2,11.7-11.2
					c3.4,0,5.7,1.5,5.7,3.9c0,1.7-1.2,2.9-3.1,2.9c-1,0-1.9-0.6-2.7-1.8l-0.5-0.7c-0.6-1-1.2-1.4-2.1-1.4c-1.2,0-2.1,0.8-2.4,2.2
					c-0.2,0.8-0.3,1.6-0.3,3.4v3.5h4.7v3h-4.7v15.6c0,3,0.6,3.8,3,3.8h1.7v1.7H225.8L225.8,47.8z"/>
			</g>
			<g>
				<path class="st0" d="M256.9,31v-0.4c0-3.4-1.6-5.6-4.1-5.6c-2.8,0-4.8,2.3-5.1,6.1H256.9L256.9,31z M264.1,39.6
					c-0.5,2-1.9,4.4-3.8,6.2c-2,1.9-4.5,3-7.2,3c-6.5,0-11.1-5.4-11.1-13.2c0-7.8,4.6-13,11.5-13c6.2,0,10.3,4.2,10.3,10.5v0.6
					h-16.1c0.4,5.6,3.6,9.5,8,9.5c2.9,0,5.6-1.7,7.1-4.4L264.1,39.6L264.1,39.6z"/>
			</g>
		</g>
		<g>
			<polygon class="st0" points="47.8,47.8 47.8,0 0,0 0,47.8 47.8,47.8 			"/>
		</g>
		<g>
			<polygon class="st1" points="42.4,9.9 35.3,16.9 35.3,45.1 42.4,38.1 42.4,9.9 			"/>
		</g>
		<g>
			<polygon class="st1" points="30.6,10 23.5,16.9 23.5,45.2 30.6,38.2 30.6,10 			"/>
		</g>
		<g>
			<polygon class="st1" points="18.9,10 11.7,17 11.7,45.2 18.9,38.2 18.9,10 			"/>
		</g>
	</g>
</g>
</svg>
